<svg width="100%" height="100%" viewBox="0 0 18 18" fill="none" xmlns="http://www.w3.org/2000/svg">
<g clip-path="url(#clip0_26_13)">
<path d="M17.9955 18L18 17.9993V11.3978C18 8.16826 17.3048 5.68051 13.5293 5.68051C11.7143 5.68051 10.4963 6.67651 9.99901 7.62076H9.94651V5.98201H6.36676V17.9993H10.0943V12.0488C10.0943 10.482 10.3913 8.96701 12.3315 8.96701C14.2433 8.96701 14.2718 10.755 14.2718 12.1493V18H17.9955Z" fill="white"/>
<path d="M0.296997 5.98276H4.029V18H0.296997V5.98276Z" fill="white"/>
<path d="M2.1615 0C0.96825 0 0 0.96825 0 2.1615C0 3.35475 0.96825 4.34325 2.1615 4.34325C3.35475 4.34325 4.323 3.35475 4.323 2.1615C4.32225 0.96825 3.354 0 2.1615 0Z" fill="white"/>
</g>
<defs>
<clipPath id="clip0_26_13">
<rect width="18" height="18" fill="white"/>
</clipPath>
</defs>
</svg>
