<svg width="124" height="52" viewBox="0 0 124 52" fill="none" xmlns="http://www.w3.org/2000/svg">
<g clip-path="url(#clip0_7_390)">
<path fill-rule="evenodd" clip-rule="evenodd" d="M55.4123 39.65C55.4123 39.65 55.6702 37.778 53.3853 35.414C51.1005 33.05 49.1035 31.31 49.1035 28.892C49.1035 26.474 51.7871 24.059 52.6447 23.282C51.0765 23.723 45.1365 27.464 45.4213 30.035C45.7062 32.087 48.9326 33.203 49.6192 33.413C49.6192 33.413 43.3943 32.996 43.3943 30.008C43.3943 30.008 42.9086 26.213 51.8741 21.356C50.4168 21.173 42.024 23.354 40.5967 23.771C39.1665 24.185 27.7182 27.563 23.976 25.043C27.5203 25.175 30.8306 25.277 37.8261 22.835C40.6237 21.899 46.8186 20.054 53.0465 20.42C52.075 20.003 46.5068 19.769 41.5113 20.654C38.5128 21.098 21.5503 24.188 19.4393 21.173C22.5488 22.031 30.033 21.821 37.4273 20.264C40.9685 19.613 46.9356 18.341 54.1889 19.25C51.9611 18.524 45.5353 18.083 37.0255 18.704C28.8036 19.457 20.081 20.693 16.024 17.75C20.9775 18.884 26.5128 18.848 34.039 17.963C41.5623 17.078 47.7242 16.685 54.3149 17.963C52.9506 17.183 45.8531 15.905 38.7167 16.085C31.5802 16.262 15.4753 17.54 11.7332 13.778C17.0375 15.125 23.0795 15.8 32.4768 14.843C35.4783 14.561 46.4348 14.666 52.7137 16.298C50.6867 15.446 38.7137 12.644 27.7961 13.142C23.8951 13.283 12.7437 13.532 4.55475 7.78401C13.1335 11.192 24.5188 12.113 33.0225 12.113C36.3778 12.185 44.174 12.608 49.6342 14.027C46.8246 12.608 26 9.91101 19.0615 8.99001C12.12 8.06601 3.07649 6.15201 0.812622 1.18401C4.32387 4.02201 13.5263 6.36201 20.4648 7.49901C27.4033 8.63301 43.2354 11.189 46.5128 11.9C44.6417 11.12 22.4948 7.00401 20.3898 1.04301C24.2879 3.81201 34.5817 7.004 37.7032 7.643C40.8216 8.282 42.8516 8.921 44.4108 9.56C43.1605 8.849 36.144 6.29601 34.2729 5.51601C32.4018 4.73601 27.9551 2.606 29.2054 0.479004C29.9071 2.537 33.9611 5.447 41.4483 7.079C38.1739 5.375 34.8966 4.16901 39.1874 2.46501C37.7841 3.59901 38.7946 4.45101 40.5128 5.58801C42.2279 6.72501 48.5458 9.776 51.8201 10.91C55.0945 12.047 60.009 13.748 57.9041 19.07C56.7707 21.755 51.5113 26.378 51.5862 29.501C51.6642 32.624 56.2009 35.333 55.4123 39.656M68.5847 39.65C68.5847 39.65 68.3299 37.778 70.6117 35.414C72.8966 33.05 74.8936 31.31 74.8936 28.892C74.8936 26.474 72.2099 24.059 71.3524 23.282C72.9206 23.723 78.8636 27.464 78.5757 30.035C78.2909 32.087 75.0645 33.203 74.3778 33.413C74.3778 33.413 80.6027 32.996 80.6027 30.008C80.6027 30.008 81.0885 26.213 72.12 21.356C73.5772 21.173 81.973 23.354 83.4003 23.771C84.8306 24.185 96.2789 27.563 100.018 25.043C96.4768 25.175 93.1695 25.277 86.171 22.835C83.3734 21.899 77.1785 20.054 70.9506 20.42C71.9221 20.003 77.4933 19.769 82.4858 20.654C85.4843 21.098 102.444 24.188 104.558 21.173C101.448 22.031 93.9641 21.821 86.5698 20.264C83.0285 19.613 77.0615 18.341 69.8081 19.25C72.036 18.524 78.4588 18.083 86.9715 18.704C95.1964 19.457 103.916 20.693 107.97 17.75C103.017 18.884 97.4813 18.848 89.9551 17.963C82.4288 17.078 76.2699 16.685 69.6792 17.963C71.0435 17.183 78.138 15.905 85.2774 16.085C92.4108 16.262 108.516 17.54 112.258 13.778C106.957 15.125 100.912 15.8 91.5143 14.843C88.5128 14.561 77.5533 14.666 71.2774 16.298C73.3044 15.446 85.2774 12.644 96.1919 13.142C100.093 13.283 111.244 13.532 119.433 7.78401C110.855 11.192 99.4693 12.113 90.9656 12.113C87.6132 12.185 79.8141 12.608 74.3569 14.027C77.1605 12.608 97.985 9.91101 104.927 8.99001C111.868 8.06601 120.915 6.15201 123.175 1.18401C119.664 4.02201 110.465 6.36201 103.523 7.49901C96.5817 8.63301 80.7497 11.189 77.4753 11.9C79.3494 11.12 101.496 7.00401 103.598 1.04301C99.6972 3.81201 89.4063 7.004 86.2849 7.643C83.1665 8.282 81.1395 8.921 79.5772 9.56C80.8276 8.849 87.8471 6.29601 89.7212 5.51601C91.5892 4.73601 96.036 2.606 94.7856 0.479004C94.084 2.537 90.03 5.447 82.5428 7.079C85.8201 5.375 89.0945 4.16901 84.8036 2.46501C86.2069 3.59901 85.1934 4.45101 83.4753 5.58801C81.7602 6.72501 75.4453 9.776 72.168 10.91C68.8906 12.047 63.979 13.748 66.084 19.07C67.2174 21.755 72.4798 26.378 72.4018 29.501C72.3239 32.624 67.7871 35.333 68.5728 39.656M61.2384 37.07H58.5817C59.4123 36.539 59.8291 35.624 59.8291 34.331V4.55001H47.3913C46.5578 4.55001 45.8531 4.93101 45.2744 5.69601L44.5667 3.05601H61.2384V37.07ZM79.4333 3.053L78.8906 5.69301C78.5638 5.42901 78.2279 5.171 77.8831 4.919C77.5383 4.67 77.1125 4.54701 76.6087 4.54701H64.1739V34.328C64.1739 35.69 64.5907 36.602 65.4243 37.067H62.7107V3.053H79.4363H79.4333Z" fill="white"/>
<path fill-rule="evenodd" clip-rule="evenodd" d="M66.1919 49.529C66.1919 50.102 65.904 50.564 65.3313 50.918C64.7166 51.299 63.8561 51.491 62.7496 51.491C61.6432 51.491 60.7556 51.311 60.1679 50.951C59.6582 50.639 59.3553 50.177 59.2504 49.571L60.6177 49.478C60.7256 49.928 60.9055 50.255 61.1514 50.447C61.4812 50.705 62.024 50.834 62.7886 50.834C63.4033 50.834 63.898 50.729 64.2609 50.522C64.6327 50.312 64.8156 50.003 64.8156 49.595C64.8156 49.187 64.5637 48.848 64.057 48.584C63.7721 48.431 63.1574 48.212 62.2099 47.936C61.2594 47.657 60.6297 47.429 60.3328 47.249C59.8531 46.97 59.6132 46.595 59.6132 46.124C59.6132 45.653 59.907 45.221 60.4917 44.873C61.0825 44.525 61.8471 44.351 62.7886 44.351C63.7301 44.351 64.4228 44.504 64.9805 44.807C65.4723 45.08 65.8171 45.452 66.006 45.926L64.6777 46.028C64.5397 45.722 64.3478 45.485 64.1019 45.326C63.7751 45.113 63.3403 45.002 62.7916 45.002C62.1919 45.002 61.7421 45.11 61.4423 45.317C61.1394 45.533 60.9895 45.8 60.9895 46.118C60.9895 46.409 61.1184 46.634 61.3793 46.787C61.6222 46.94 62.2848 47.18 63.3673 47.513C64.3658 47.813 65.0465 48.071 65.4123 48.293C65.934 48.617 66.1949 49.025 66.1949 49.526" fill="white"/>
<path fill-rule="evenodd" clip-rule="evenodd" d="M53.4063 47.921C53.4063 46.742 53.1274 45.935 52.5667 45.506C52.1829 45.215 51.5982 45.068 50.8066 45.068H49.3493V50.768H50.4768C51.4753 50.768 52.1709 50.621 52.5667 50.333C53.1274 49.922 53.4063 49.121 53.4063 47.921ZM54.8456 47.921C54.8456 48.62 54.7856 49.142 54.6597 49.496C54.4528 50.087 54.069 50.534 53.5143 50.831C52.8186 51.206 51.8171 51.395 50.5218 51.395H46.8666V50.768H47.976V45.068H46.8666V44.441H50.4738C51.976 44.441 53.0495 44.66 53.6912 45.101C54.4588 45.617 54.8426 46.562 54.8426 47.921H54.8456Z" fill="white"/>
<path fill-rule="evenodd" clip-rule="evenodd" d="M121.277 46.286C121.277 45.851 121.086 45.536 120.705 45.35C120.324 45.161 119.76 45.068 119.023 45.068H117.343V47.675H119.349C120.636 47.675 121.277 47.213 121.277 46.286ZM123.184 51.227L121.961 51.527L118.885 48.299H117.346V51.395H115.976V44.441H119.667C120.429 44.441 121.104 44.591 121.691 44.891C122.375 45.239 122.717 45.704 122.717 46.289C122.717 46.751 122.543 47.147 122.186 47.474C121.778 47.849 121.166 48.107 120.36 48.248L123.184 51.224V51.227Z" fill="white"/>
<path fill-rule="evenodd" clip-rule="evenodd" d="M111.568 51.395H104.915V44.441H111.568V45.068H106.282V47.363H110.648V47.987H106.282V50.768H111.568V51.395Z" fill="white"/>
<path fill-rule="evenodd" clip-rule="evenodd" d="M88.8815 45.068H85.985V51.395H84.6147V45.068H81.6611V44.441H88.8815V45.068Z" fill="white"/>
<path fill-rule="evenodd" clip-rule="evenodd" d="M100.507 45.068H97.6132V51.395H96.2429V45.068H93.2864V44.441H100.507V45.068Z" fill="white"/>
<path fill-rule="evenodd" clip-rule="evenodd" d="M77.2533 51.395H70.5967V44.441H77.2533V45.068H71.97V47.363H76.3328V47.987H71.97V50.768H77.2533V51.395Z" fill="white"/>
<path fill-rule="evenodd" clip-rule="evenodd" d="M42.4618 51.395H40.6357L36.5757 45.536L36.5368 45.557L36.4978 51.395H35.1215V44.441H36.9476L41.0075 50.288L41.0465 50.27L41.0915 44.441H42.4618V51.395Z" fill="white"/>
<path fill-rule="evenodd" clip-rule="evenodd" d="M30.7136 51.395H24.0599V44.441H30.7136V45.068H25.4303V47.363H29.7961V47.987H25.4303V50.768H30.7136V51.395Z" fill="white"/>
<path fill-rule="evenodd" clip-rule="evenodd" d="M17.7451 46.286C17.7451 45.851 17.5532 45.536 17.1724 45.35C16.7916 45.161 16.2308 45.068 15.4932 45.068H13.8111V47.675H15.8171C17.1004 47.675 17.7421 47.213 17.7451 46.286ZM19.6521 51.227L18.4258 51.527L15.3463 48.299H13.8111V51.395H12.4377V44.441H16.1289C16.8905 44.441 17.5682 44.591 18.1559 44.891C18.8395 45.239 19.1814 45.704 19.1814 46.289C19.1814 46.751 19.0045 47.147 18.6506 47.474C18.2398 47.849 17.6311 48.107 16.8246 48.248L19.6521 51.224V51.227Z" fill="white"/>
<path fill-rule="evenodd" clip-rule="evenodd" d="M8.03294 45.068H5.14239V51.395H3.76907V45.068H0.815552V44.441H8.03294V45.068Z" fill="white"/>
</g>
<defs>
<clipPath id="clip0_7_390">
<rect width="124" height="52" fill="white"/>
</clipPath>
</defs>
</svg>
